<mxfile host="app.diagrams.net" agent="Mozilla/5.0 (Windows NT 10.0; Win64; x64) AppleWebKit/537.36 (KHTML, like Gecko) Chrome/131.0.0.0 Safari/537.36" version="25.0.3">
  <diagram name="Page-1" id="CSnpGQzMtUrZoiWHQE6S">
    <mxGraphModel dx="1050" dy="522" grid="1" gridSize="10" guides="1" tooltips="1" connect="1" arrows="1" fold="1" page="1" pageScale="1" pageWidth="827" pageHeight="1169" math="0" shadow="0">
      <root>
        <mxCell id="0" />
        <mxCell id="1" parent="0" />
        <mxCell id="hWd1Pk0RT9BdvqmXm1Gd-1" value="Start" style="ellipse;whiteSpace=wrap;html=1;" vertex="1" parent="1">
          <mxGeometry x="330" y="30" width="120" height="50" as="geometry" />
        </mxCell>
        <mxCell id="hWd1Pk0RT9BdvqmXm1Gd-2" value="Enter value n" style="shape=parallelogram;whiteSpace=wrap;html=1;" vertex="1" parent="1">
          <mxGeometry x="330" y="130" width="120" height="50" as="geometry" />
        </mxCell>
        <mxCell id="hWd1Pk0RT9BdvqmXm1Gd-3" value="i = 1" style="parallelogram;whiteSpace=wrap;html=1;" vertex="1" parent="1">
          <mxGeometry x="330" y="230" width="120" height="50" as="geometry" />
        </mxCell>
        <mxCell id="hWd1Pk0RT9BdvqmXm1Gd-4" value="Enter value i" style="shape=parallelogram;whiteSpace=wrap;html=1;" vertex="1" parent="1">
          <mxGeometry x="330" y="330" width="120" height="50" as="geometry" />
        </mxCell>
        <mxCell id="hWd1Pk0RT9BdvqmXm1Gd-5" value="sum += value" style="rounded=0;whiteSpace=wrap;html=1;" vertex="1" parent="1">
          <mxGeometry x="330" y="430" width="120" height="50" as="geometry" />
        </mxCell>
        <mxCell id="hWd1Pk0RT9BdvqmXm1Gd-6" value="i++" style="parallelogram;whiteSpace=wrap;html=1;" vertex="1" parent="1">
          <mxGeometry x="330" y="530" width="120" height="50" as="geometry" />
        </mxCell>
        <mxCell id="hWd1Pk0RT9BdvqmXm1Gd-7" value="i <= n?" style="rhombus;whiteSpace=wrap;html=1;" vertex="1" parent="1">
          <mxGeometry x="330" y="630" width="120" height="50" as="geometry" />
        </mxCell>
        <mxCell id="hWd1Pk0RT9BdvqmXm1Gd-8" value="avg = sum / n" style="parallelogram;whiteSpace=wrap;html=1;" vertex="1" parent="1">
          <mxGeometry x="330" y="730" width="120" height="50" as="geometry" />
        </mxCell>
        <mxCell id="hWd1Pk0RT9BdvqmXm1Gd-9" value="Display sum and avg" style="parallelogram;whiteSpace=wrap;html=1;" vertex="1" parent="1">
          <mxGeometry x="330" y="830" width="120" height="50" as="geometry" />
        </mxCell>
        <mxCell id="hWd1Pk0RT9BdvqmXm1Gd-10" value="End" style="ellipse;whiteSpace=wrap;html=1;" vertex="1" parent="1">
          <mxGeometry x="330" y="930" width="120" height="50" as="geometry" />
        </mxCell>
        <mxCell id="hWd1Pk0RT9BdvqmXm1Gd-11" value="" style="edgeStyle=orthogonalEdgeStyle;rounded=0;orthogonalLoop=1;jettySize=auto;html=1;" edge="1" parent="1" source="hWd1Pk0RT9BdvqmXm1Gd-1" target="hWd1Pk0RT9BdvqmXm1Gd-2">
          <mxGeometry relative="1" as="geometry" />
        </mxCell>
        <mxCell id="hWd1Pk0RT9BdvqmXm1Gd-12" value="" style="edgeStyle=orthogonalEdgeStyle;rounded=0;orthogonalLoop=1;jettySize=auto;html=1;" edge="1" parent="1" source="hWd1Pk0RT9BdvqmXm1Gd-2" target="hWd1Pk0RT9BdvqmXm1Gd-3">
          <mxGeometry relative="1" as="geometry" />
        </mxCell>
        <mxCell id="hWd1Pk0RT9BdvqmXm1Gd-13" value="" style="edgeStyle=orthogonalEdgeStyle;rounded=0;orthogonalLoop=1;jettySize=auto;html=1;" edge="1" parent="1" source="hWd1Pk0RT9BdvqmXm1Gd-3" target="hWd1Pk0RT9BdvqmXm1Gd-4">
          <mxGeometry relative="1" as="geometry" />
        </mxCell>
        <mxCell id="hWd1Pk0RT9BdvqmXm1Gd-14" value="" style="edgeStyle=orthogonalEdgeStyle;rounded=0;orthogonalLoop=1;jettySize=auto;html=1;" edge="1" parent="1" source="hWd1Pk0RT9BdvqmXm1Gd-4" target="hWd1Pk0RT9BdvqmXm1Gd-5">
          <mxGeometry relative="1" as="geometry" />
        </mxCell>
        <mxCell id="hWd1Pk0RT9BdvqmXm1Gd-15" value="" style="edgeStyle=orthogonalEdgeStyle;rounded=0;orthogonalLoop=1;jettySize=auto;html=1;" edge="1" parent="1" source="hWd1Pk0RT9BdvqmXm1Gd-5" target="hWd1Pk0RT9BdvqmXm1Gd-6">
          <mxGeometry relative="1" as="geometry" />
        </mxCell>
        <mxCell id="hWd1Pk0RT9BdvqmXm1Gd-16" value="" style="edgeStyle=orthogonalEdgeStyle;rounded=0;orthogonalLoop=1;jettySize=auto;html=1;" edge="1" parent="1" source="hWd1Pk0RT9BdvqmXm1Gd-6" target="hWd1Pk0RT9BdvqmXm1Gd-7">
          <mxGeometry relative="1" as="geometry" />
        </mxCell>
        <mxCell id="hWd1Pk0RT9BdvqmXm1Gd-17" value="" style="edgeStyle=orthogonalEdgeStyle;rounded=0;orthogonalLoop=1;jettySize=auto;html=1;" edge="1" parent="1" source="hWd1Pk0RT9BdvqmXm1Gd-7" target="hWd1Pk0RT9BdvqmXm1Gd-3">
          <mxGeometry relative="1" as="geometry" />
        </mxCell>
        <mxCell id="hWd1Pk0RT9BdvqmXm1Gd-18" value="" style="edgeStyle=orthogonalEdgeStyle;rounded=0;orthogonalLoop=1;jettySize=auto;html=1;" edge="1" parent="1" source="hWd1Pk0RT9BdvqmXm1Gd-7" target="hWd1Pk0RT9BdvqmXm1Gd-8">
          <mxGeometry relative="1" as="geometry" />
        </mxCell>
        <mxCell id="hWd1Pk0RT9BdvqmXm1Gd-19" value="" style="edgeStyle=orthogonalEdgeStyle;rounded=0;orthogonalLoop=1;jettySize=auto;html=1;" edge="1" parent="1" source="hWd1Pk0RT9BdvqmXm1Gd-8" target="hWd1Pk0RT9BdvqmXm1Gd-9">
          <mxGeometry relative="1" as="geometry" />
        </mxCell>
        <mxCell id="hWd1Pk0RT9BdvqmXm1Gd-20" value="" style="edgeStyle=orthogonalEdgeStyle;rounded=0;orthogonalLoop=1;jettySize=auto;html=1;" edge="1" parent="1" source="hWd1Pk0RT9BdvqmXm1Gd-9" target="hWd1Pk0RT9BdvqmXm1Gd-10">
          <mxGeometry relative="1" as="geometry" />
        </mxCell>
      </root>
    </mxGraphModel>
  </diagram>
</mxfile>
